<svg id="Capa_1" enable-background="new 0 0 509.358 509.358" height="512" viewBox="0 0 509.358 509.358" width="512" xmlns="http://www.w3.org/2000/svg"><path d="m358.528 0c-82.91 0-150.04 66.47-150.83 149.37-.35 36.77 12.53 70.56 34.15 96.93l-44.3 44.31-9.54-9.54c-3.91-3.9-10.24-3.9-14.14 0l-30.52 30.5.01.02 54.43 54.43 30.51-30.51c3.9-3.91 3.9-10.24 0-14.15l-9.54-9.54 44.3-44.3c26.35 21.61 60.13 34.49 96.88 34.15 82.92-.77 149.42-67.92 149.42-150.84 0-83.17-67.66-150.82-150.83-150.83zm15.98 217.72c0 8.29-6.71 15-15 15-8.28 0-15-6.71-15-15v-1.08c0-8.28 6.72-15 15-15 8.29 0 15 6.72 15 15zm0-55.43v10.68c0 8.28-6.71 15-15 15-8.28 0-15-6.72-15-15v-10.95c0-12.85 8.27-24.19 20.56-28.21 7.78-2.54 12.82-10.06 12.26-18.28-.6-8.66-7.85-15.92-16.52-16.52-10.49-.71-19.16 7.53-19.16 17.82 0 8.28-6.71 15-15 15-8.28 0-15-6.72-15-15 0-27.62 23.44-49.67 51.23-47.74 23.67 1.63 42.74 20.71 44.38 44.38 1.51 21.9-11.95 41.96-32.75 48.82z"/><path d="m122.123 332.798-110.85 110.86c-15.03 15.03-15.03 39.4 0 54.43 15.003 15.003 39.399 15.05 54.43 0l110.85-110.86c-5.231-5.23-49.176-49.176-54.43-54.43z"/></svg>